HIERARCHY
ROOT Hips
{
 OFFSET 0.000000 0.000000 0.000000
 CHANNELS 6 Xposition Yposition Zposition Yrotation Xrotation Zrotation
 JOINT Chest
 {
  OFFSET 0.000000 11.395451 -0.039534
  CHANNELS 3 Yrotation Xrotation Zrotation
  JOINT Chest2
  {
   OFFSET 0.000000 9.398669 0.071813
   CHANNELS 3 Yrotation Xrotation Zrotation
   JOINT Chest3
   {
    OFFSET 0.000000 8.489801 0.000000
    CHANNELS 3 Yrotation Xrotation Zrotation
    JOINT Chest4
    {
     OFFSET 0.000000 8.489801 0.000000
     CHANNELS 3 Yrotation Xrotation Zrotation
     JOINT Neck
     {
      OFFSET 0.000000 12.404889 0.000000
      CHANNELS 3 Yrotation Xrotation Zrotation
      JOINT Head
      {
       OFFSET 0.000000 8.903270 0.092239
       CHANNELS 3 Yrotation Xrotation Zrotation
       End Site
       {
        OFFSET 0.000000 17.592497 0.007158
       }
      }
     }
     JOINT RightCollar
     {
      OFFSET -3.196775 6.966722 0.000000
      CHANNELS 3 Yrotation Xrotation Zrotation
      JOINT RightShoulder
      {
       OFFSET -15.955896 0.000000 0.000000
       CHANNELS 3 Yrotation Xrotation Zrotation
       JOINT RightElbow
       {
        OFFSET -24.792472 0.000000 0.000000
        CHANNELS 3 Yrotation Xrotation Zrotation
        JOINT RightWrist
        {
         OFFSET -20.900115 0.000000 0.025002
         CHANNELS 3 Yrotation Xrotation Zrotation
         End Site
         {
          OFFSET -16.056692 0.000000 0.000000
         }
        }
       }
      }
     }
     JOINT LeftCollar
     {
      OFFSET 3.196775 6.966722 0.000000
      CHANNELS 3 Yrotation Xrotation Zrotation
      JOINT LeftShoulder
      {
       OFFSET 15.955896 0.000000 0.000000
       CHANNELS 3 Yrotation Xrotation Zrotation
       JOINT LeftElbow
       {
        OFFSET 24.792472 0.000000 0.000000
        CHANNELS 3 Yrotation Xrotation Zrotation
        JOINT LeftWrist
        {
         OFFSET 20.900115 0.000000 0.025002
         CHANNELS 3 Yrotation Xrotation Zrotation
         End Site
         {
          OFFSET 16.056692 0.000000 0.000000
         }
        }
       }
      }
     }
    }
   }
  }
 }
 JOINT RightHip
 {
  OFFSET -9.568995 0.193718 0.019767
  CHANNELS 3 Yrotation Xrotation Zrotation
  JOINT RightKnee
  {
   OFFSET 0.000000 -56.649296 0.015402
   CHANNELS 3 Yrotation Xrotation Zrotation
   JOINT RightAnkle
   {
    OFFSET 0.000000 -41.365147 0.021264
    CHANNELS 3 Yrotation Xrotation Zrotation
    JOINT RightToe
    {
     OFFSET 0.000000 -7.465940 17.672538
     CHANNELS 3 Yrotation Xrotation Zrotation
     End Site
     {
      OFFSET 0.000000 -1.736315 7.837145
     }
    }
   }
  }
 }
 JOINT LeftHip
 {
  OFFSET 9.568995 0.193718 0.019767
  CHANNELS 3 Yrotation Xrotation Zrotation
  JOINT LeftKnee
  {
   OFFSET 0.000000 -56.649296 0.015402
   CHANNELS 3 Yrotation Xrotation Zrotation
   JOINT LeftAnkle
   {
    OFFSET 0.000000 -41.365147 0.021264
    CHANNELS 3 Yrotation Xrotation Zrotation
    JOINT LeftToe
    {
     OFFSET 0.000000 -7.465940 17.672538
     CHANNELS 3 Yrotation Xrotation Zrotation
     End Site
     {
      OFFSET 0.000000 -1.736315 7.837145
     }
    }
   }
  }
 }
}
MOTION
Frames: 12
Frame Time: 0.016667
-105.489395 47.923404 -39.937989 -10.636792 -2.860148 -3.733385 4.149864 6.725932 2.349913 1.806977 3.010143 0.982257 1.806982 3.010133 0.982249 1.350091 2.260525 0.727612 10.227115 14.765793 -4.221257 20.700297 -7.297917 -11.667465 3.399832 5.473372 5.924665 19.154499 -33.735625 58.896413 12.817540 -9.294334 -1.952878 -2.139479 0.738831 -4.601034 -2.019804 5.034439 -8.280013 2.831252 -8.733298 -73.999134 0.374903 -4.957386 0.534829 2.528283 5.401559 -2.278579 -1.102104 3.716653 1.728584 0.794889 15.671481 -0.838154 -3.999667 -14.908265 1.532357 -0.012584 -0.906470 1.515484 7.259746 -25.244533 -0.872743 6.471114 23.885211 -0.123498 2.232919 -1.092305 -1.522173 0.000000 0.000000 0.000000
-106.009358 47.734767 -38.218804 -10.399423 -2.642237 -3.951603 4.286002 6.600539 2.410740 1.867262 2.955668 1.008510 1.867262 2.955668 1.008510 1.395259 2.219863 0.747185 10.574419 14.771409 -4.311112 21.376058 -7.199491 -11.951578 3.517749 5.616163 5.904832 19.619910 -34.609954 58.153097 14.772337 -10.447422 -1.827902 -2.017976 0.625221 -4.769761 -2.035320 4.991452 -8.370443 3.477016 -8.199808 -74.199608 1.581352 -4.024203 1.496151 2.704886 5.890038 -2.479323 -0.405046 4.410268 2.087572 0.360512 15.949457 -0.779380 -4.530482 -15.483302 1.932540 -0.022838 -1.633815 2.011822 8.240979 -24.035179 -1.560687 7.063081 16.866130 0.119421 2.138212 -0.045771 -1.994080 0.000000 0.000000 0.000000
-106.495815 47.509722 -36.388761 -10.338013 -2.563580 -4.200789 4.471947 6.488817 2.478036 1.949508 2.907615 1.036861 1.949506 2.907616 1.036862 1.456882 2.184054 0.768208 10.894870 14.790155 -4.341937 21.978165 -7.093457 -12.113806 3.614456 5.746507 5.939609 20.287506 -35.226963 57.334159 16.639275 -12.206856 -1.641784 -1.957899 0.938570 -4.915299 -2.031212 4.895393 -8.488718 3.987044 -7.618363 -74.366195 2.923525 -3.031085 2.465010 2.899863 6.316984 -2.840004 -0.356521 5.163139 2.305232 0.228204 16.519373 -0.689510 -4.347723 -16.130929 2.268173 -0.032974 -2.508429 1.875319 10.187008 -22.577933 -2.476247 6.709632 10.667880 0.182035 2.284726 0.206559 -1.870942 0.000000 0.000000 0.000000
-106.948856 47.256367 -34.467841 -10.395665 -2.587160 -4.470921 4.679645 6.385528 2.545062 2.041403 2.863484 1.064789 2.041402 2.863484 1.064788 1.525745 2.151207 0.788863 11.197503 14.813777 -4.323599 22.528636 -6.992208 -12.177460 3.701345 5.877190 6.009129 21.002268 -35.651737 56.566578 18.429899 -14.213787 -1.476824 -1.943650 1.472437 -5.004792 -2.021608 4.779403 -8.623664 4.392093 -7.032123 -74.518095 4.377408 -1.964417 3.469855 3.134672 6.755803 -3.287615 -0.680922 5.943780 2.411183 0.322569 17.347201 -0.568220 -3.768036 -16.790059 2.614559 -0.038130 -3.567744 1.360801 12.558663 -20.925530 -3.422418 5.851283 5.195903 0.171790 2.447367 0.051597 -1.409443 0.000000 0.000000 0.000000
-107.371308 47.005021 -32.481239 -10.519284 -2.708958 -4.727009 4.885074 6.308705 2.582164 2.132561 2.830852 1.079272 2.132561 2.830852 1.079272 1.594098 2.126943 0.799416 11.490035 14.823967 -4.267216 23.049367 -6.925844 -12.169697 3.771602 5.975005 6.110530 21.474587 -35.941426 56.053534 20.040304 -15.565793 -1.321210 -1.877154 1.785318 -5.022394 -2.014171 4.688969 -8.724301 4.779211 -6.521102 -74.672578 5.777991 -0.998782 4.408369 3.508854 7.205320 -3.662008 -0.934483 6.672543 2.411727 0.346041 18.520900 -0.411293 -3.072755 -17.308767 3.168410 -0.027584 -4.929788 0.640777 13.981744 -19.530469 -3.926513 5.156501 1.428176 0.141461 2.303079 -0.167384 -0.881449 0.000000 0.000000 0.000000
-107.780631 46.756213 -30.424386 -10.703216 -2.984732 -4.976981 5.087192 6.290525 2.586787 2.222307 2.823942 1.078788 2.222302 2.823943 1.078795 1.661401 2.121919 0.798675 11.780870 14.806265 -4.168047 23.557378 -6.920352 -12.088358 3.817845 6.008664 6.258465 21.561398 -36.154896 55.875517 21.395266 -15.889089 -1.032980 -1.703436 1.659233 -4.969868 -2.004500 4.641541 -8.763812 5.189846 -6.137142 -74.838918 7.118885 -0.162407 5.233642 4.086711 7.662303 -3.877236 -0.898883 7.407538 2.345660 0.131372 20.055982 -0.203727 -2.296404 -17.779784 3.932069 0.012037 -6.501114 -0.202956 13.703796 -18.624203 -3.715076 5.093187 0.171494 0.182896 1.494967 -0.554247 -0.422679 0.000000 0.000000 0.000000
-108.159366 46.509415 -28.301851 -10.951773 -3.359476 -5.211377 5.287991 6.298915 2.562940 2.311679 2.828510 1.065377 2.311671 2.828511 1.065386 1.728464 2.125454 0.788191 12.060700 14.773806 -4.031260 24.034765 -6.952867 -11.937376 3.846155 6.009745 6.437073 21.393918 -36.244378 55.966565 22.545841 -15.564803 -0.629054 -1.468326 1.308348 -4.881305 -1.997399 4.618851 -8.768389 5.582141 -5.828878 -75.013100 8.404028 0.588942 5.970289 4.812146 8.118494 -4.022854 -0.795250 8.087353 2.177792 -0.140363 21.940812 0.032488 -1.371037 -18.114730 4.876019 0.093121 -8.373222 -1.258701 12.537714 -17.980469 -3.165552 5.219843 0.616927 0.310035 0.418037 -0.969746 0.130385 0.000000 0.000000 0.000000
-108.457970 46.293359 -26.152524 -11.228478 -3.661946 -5.369996 5.467934 6.256279 2.489850 2.392803 2.809681 1.031009 2.392803 2.809681 1.031009 1.789505 2.111342 0.762107 12.310833 14.750522 -3.883084 24.451145 -6.977970 -11.753302 3.870656 6.039532 6.597787 21.096887 -36.110867 56.306891 23.563887 -14.814316 -0.288403 -1.218961 0.942744 -4.803154 -2.014620 4.612862 -8.766544 5.917319 -5.521275 -75.191710 9.472150 1.205237 6.605334 5.609517 8.559769 -4.203458 -0.841271 8.448583 1.811510 -0.240085 24.220531 0.253738 -0.400958 -17.893572 6.165103 0.250116 -10.944380 -2.610394 11.486528 -17.416345 -2.831199 4.828638 1.319305 0.498185 -0.076758 -0.686908 0.880611 0.000000 0.000000 0.000000
-108.648544 46.101619 -23.983403 -11.552749 -3.800692 -5.452714 5.626662 6.110086 2.362560 2.465885 2.744019 0.974222 2.465892 2.744020 0.974215 1.844701 2.061992 0.719451 12.523986 14.736611 -3.719195 24.791542 -6.997853 -11.525719 3.890162 6.139427 6.717354 20.810085 -35.650475 56.858832 24.528656 -13.810857 -0.108315 -0.969186 0.719430 -4.808576 -2.074708 4.628080 -8.774695 6.249529 -5.154752 -75.397947 10.249667 1.683899 7.127249 6.517055 8.997669 -4.442949 -1.147020 8.404100 1.222226 0.148338 26.863516 0.472624 0.480614 -17.071967 8.012813 0.588663 -14.666269 -4.439367 10.785711 -16.938305 -2.919203 3.409922 1.784796 0.837016 0.552048 0.936891 1.967669 0.000000 0.000000 0.000000
-108.758988 45.940621 -21.787491 -11.906623 -3.866207 -5.460787 5.764907 5.913120 2.185771 2.530746 2.655004 0.896494 2.530750 2.655007 0.896489 1.893834 1.995013 0.661257 12.707217 14.732955 -3.543625 25.070517 -7.008297 -11.264322 3.907123 6.268569 6.818973 20.413236 -34.963007 57.646896 25.354568 -12.365107 0.008416 -0.707472 0.483085 -4.821957 -2.158815 4.660629 -8.777175 6.525573 -4.789379 -75.610970 10.804780 2.049433 7.523980 7.496147 9.416487 -4.726486 -1.598083 8.031291 0.441929 0.736011 29.892320 0.684323 1.540239 -15.712446 10.173205 1.163725 -19.078998 -6.623036 10.185783 -16.562281 -3.204237 1.485074 2.544258 1.225030 1.833164 3.268812 3.131232 0.000000 0.000000 0.000000
-108.823453 45.858380 -19.582691 -12.198748 -3.958898 -5.336902 5.865002 5.746479 1.952312 2.579055 2.578465 0.793793 2.579055 2.578465 0.793793 1.930618 1.937242 0.584369 12.864863 14.765075 -3.394923 25.304572 -6.952655 -11.035545 3.941407 6.364244 6.924451 19.644218 -34.246743 58.737824 25.869607 -10.151040 0.152232 -0.438144 -0.026938 -4.659209 -2.232834 4.689920 -8.754094 6.545330 -4.527655 -75.764040 11.186366 2.297066 7.777624 8.350076 9.767989 -5.105146 -2.069624 7.313585 -0.541360 0.816417 33.442220 0.766786 3.270751 -13.550653 12.110656 1.799034 -23.231414 -8.735785 9.954656 -16.151686 -3.567704 -0.126184 3.645601 1.399159 3.023835 5.075523 3.871577 0.000000 0.000000 0.000000
-108.846008 45.885248 -17.333406 -12.422301 -4.123613 -5.009619 5.911910 5.623574 1.623650 2.604526 2.519844 0.648957 2.604533 2.519841 0.648957 1.950421 1.892693 0.475902 13.007189 14.862109 -3.267259 25.504600 -6.777036 -10.825007 3.985753 6.371681 7.069699 18.197481 -33.555663 60.301688 25.978393 -6.640395 0.395574 -0.050598 -1.082311 -4.208623 -2.278814 4.712195 -8.690411 6.248366 -4.358682 -75.826142 11.464938 2.458042 7.886403 8.980233 9.992990 -5.651951 -2.539961 6.233043 -1.859438 -0.177352 37.768513 0.503706 6.258991 -10.211184 13.693957 2.428409 -27.411602 -10.832448 10.597340 -15.635538 -4.038454 -1.242505 5.204187 1.191402 3.674889 5.886876 3.940422 0.000000 0.000000 0.000000
